<svg xmlns="http://www.w3.org/2000/svg" width="1280" height="720" viewBox="0 0 1280 720" role="img" aria-label="Work With Your TC training thumbnail">
  <defs>
    <linearGradient id="g" x1="0" y1="0" x2="1" y2="1"><stop offset="0" stop-color="#0284c7"/><stop offset="1" stop-color="#14b8a6"/></linearGradient>
    <radialGradient id="glow" cx="84%" cy="12%" r="62%"><stop offset="0" stop-color="#ffffff" stop-opacity=".24"/><stop offset="1" stop-color="#ffffff" stop-opacity="0"/></radialGradient>
    <pattern id="dot" width="36" height="36" patternUnits="userSpaceOnUse"><circle cx="4" cy="4" r="2.2" fill="#fff" opacity=".22"/></pattern>
    <filter id="shadow" x="-20%" y="-20%" width="140%" height="140%"><feDropShadow dx="0" dy="20" stdDeviation="24" flood-color="#020617" flood-opacity=".28"/></filter>
  </defs>
  <rect width="1280" height="720" rx="0" fill="#05070b"/>
  <rect width="1280" height="720" fill="url(#g)"/>
  <rect width="1280" height="720" fill="url(#dot)" opacity=".9"/>
  <rect width="1280" height="720" fill="url(#glow)"/>
  <path d="M0 548 C234 504 399 587 647 548 C861 514 1028 420 1280 475 V720 H0 Z" fill="#fff" opacity=".08"/>

  <g opacity=".34" fill="none" stroke="#061017" stroke-width="26" stroke-linejoin="round">
    <path d="M585 438 L688 176 L1096 317 L994 579 Z" opacity=".55"/>
    <path d="M694 481 L780 258 L1127 379 L1041 607 Z" opacity=".35"/>
  </g>
  <g opacity=".16" fill="#fff"><circle cx="243" cy="249" r="94"/><circle cx="362" cy="246" r="70"/><rect x="196" y="304" width="276" height="176" rx="22"/></g>
  <g filter="url(#shadow)">
    <text x="62" y="82" font-size="28" font-weight="900" fill="#eaffff" letter-spacing="5" font-family="Inter, Arial, sans-serif">TRANSACTION COORDINATION</text>
    <text x="62" y="616" font-size="52" font-weight="900" fill="#ffffff" font-family="Inter, Arial, sans-serif">Work With Your TC</text>
    <text x="62" y="662" font-size="24" font-weight="800" fill="#d9fff0" letter-spacing="2" font-family="Inter, Arial, sans-serif">handoff + deadlines</text>
  </g>
</svg>
